<?xml version="1.0" encoding="iso-8859-1"?>
<!-- Generator: Adobe Illustrator 19.0.0, SVG Export Plug-In . SVG Version: 6.00 Build 0)  -->
<svg xmlns="http://www.w3.org/2000/svg" xmlns:xlink="http://www.w3.org/1999/xlink" version="1.1" id="Capa_1" x="0px" y="0px" viewBox="0 0 384.97 384.97" style="enable-background:new 0 0 384.97 384.97;" xml:space="preserve" width="24px" height="24px">
<g>
	<g id="Chevron_Down_Circle">
		<path d="M192.485,0C86.185,0,0,86.173,0,192.485c0,106.3,86.185,192.485,192.485,192.485    c106.312,0,192.485-86.185,192.485-192.485C384.97,86.173,298.797,0,192.485,0z M192.485,360.909    c-92.874,0-168.424-75.55-168.424-168.424S99.611,24.061,192.485,24.061s168.797,75.55,168.797,168.424    S285.359,360.909,192.485,360.909z" fill="#0fbf24"/>
		<path d="M268.276,149.092l-75.61,74.528l-75.61-74.54c-4.74-4.704-12.439-4.704-17.191,0c-4.74,4.704-4.74,12.319,0,17.011    l84.2,83.009c4.62,4.572,12.56,4.584,17.191,0l84.2-82.997c4.74-4.704,4.74-12.319,0-17.011    C280.715,144.4,273.028,144.4,268.276,149.092z" fill="#0fbf24"/>
	</g>
	<g>
	</g>
	<g>
	</g>
	<g>
	</g>
	<g>
	</g>
	<g>
	</g>
	<g>
	</g>
</g>
<g>
</g>
<g>
</g>
<g>
</g>
<g>
</g>
<g>
</g>
<g>
</g>
<g>
</g>
<g>
</g>
<g>
</g>
<g>
</g>
<g>
</g>
<g>
</g>
<g>
</g>
<g>
</g>
<g>
</g>
</svg>
